<?xml version="1.0" standalone="no"?>
<!DOCTYPE svg PUBLIC "-//W3C//DTD SVG 20010904//EN"
 "http://www.w3.org/TR/2001/REC-SVG-20010904/DTD/svg10.dtd">
<svg version="1.0" xmlns="http://www.w3.org/2000/svg"
 width="191.000000pt" height="118.000000pt" viewBox="0 0 191.000000 118.000000"
 preserveAspectRatio="xMidYMid meet">
<metadata>
Created by potrace 1.15, written by Peter Selinger 2001-2017
</metadata>
<g transform="translate(0.000000,118.000000) scale(0.100000,-0.100000)"
fill="#000000" stroke="none">
<path d="M0 590 l0 -590 955 0 955 0 0 590 0 590 -955 0 -955 0 0 -590z m1407
296 c35 -38 44 -88 22 -128 -10 -19 -7 -26 32 -59 42 -35 45 -36 71 -23 16 8
39 12 52 8 33 -8 66 38 48 67 -30 47 8 119 63 119 33 0 75 -41 75 -73 0 -42
-36 -77 -80 -77 -30 0 -41 -6 -55 -26 -14 -21 -15 -31 -5 -54 7 -16 9 -37 6
-47 -5 -15 3 -24 37 -40 37 -18 45 -19 61 -7 11 7 23 11 27 8 5 -2 18 14 30
37 17 34 19 46 10 67 -14 30 -6 59 20 73 28 14 69 -13 69 -46 0 -24 -36 -59
-52 -49 -13 8 -51 -87 -38 -100 33 -33 -17 -99 -60 -76 -17 9 -31 6 -79 -20
-32 -17 -68 -44 -80 -61 -28 -37 -53 -37 -83 1 -29 37 -81 55 -99 33 -22 -26
-70 -45 -98 -38 -42 11 -81 54 -81 92 0 29 -5 35 -49 57 l-48 25 -33 -34 c-45
-46 -107 -70 -162 -61 -49 8 -103 39 -124 72 l-16 23 -44 -22 c-40 -19 -44
-24 -44 -56 0 -49 -33 -99 -77 -118 -50 -20 -103 -5 -138 41 -25 33 -25 33
-81 24 -43 -7 -61 -15 -80 -38 -32 -38 -56 -45 -92 -26 -30 16 -42 34 -42 65
0 25 -65 60 -82 43 -7 -7 -22 -12 -34 -12 -52 0 -61 77 -10 95 24 8 31 6 47
-14 10 -13 17 -27 14 -32 -3 -4 12 -17 34 -28 39 -20 40 -20 46 -2 9 30 -66
142 -112 166 -24 13 -39 28 -41 43 -7 47 43 72 82 41 16 -13 40 -19 73 -19 42
0 52 4 63 24 20 38 61 51 98 32 17 -9 32 -21 34 -27 2 -7 17 -5 46 6 37 15 42
21 42 49 0 41 24 75 66 92 29 12 39 12 68 0 40 -17 66 -51 66 -87 0 -21 8 -29
41 -42 l41 -16 43 44 c86 88 202 83 284 -11 l32 -36 39 17 c35 16 38 20 33 50
-7 41 18 90 60 116 48 30 103 20 144 -25z"/>
<path d="M885 796 c-37 -17 -70 -52 -84 -89 -13 -34 -15 -110 -2 -103 5 4 7
-2 4 -13 -7 -26 50 -87 94 -102 48 -15 114 -7 153 21 37 26 70 90 70 135 0 45
-34 109 -70 135 -40 29 -121 37 -165 16z m105 -16 c24 -24 26 -53 5 -70 -14
-12 -12 -17 15 -41 16 -15 30 -35 30 -43 0 -9 4 -16 8 -16 7 0 8 -39 2 -47 -2
-2 -3 -13 -4 -25 -1 -22 -5 -23 -95 -26 l-93 -3 5 63 c6 70 10 93 17 94 3 0
15 6 28 13 20 11 21 13 7 28 -14 13 -18 61 -9 83 7 16 66 8 84 -10z"/>
<path d="M1173 728 c-39 -18 -41 -21 -32 -50 5 -18 5 -48 -1 -72 -5 -22 -8
-41 -7 -42 1 -1 22 -11 46 -24 l43 -22 27 26 c37 36 78 42 119 16 33 -21 52
-54 52 -94 0 -29 62 -52 81 -30 15 18 63 18 79 -1 10 -12 20 -10 71 15 73 37
76 58 15 88 -41 19 -47 20 -75 6 -27 -13 -33 -13 -60 1 -32 16 -47 51 -38 85
4 15 -6 29 -38 56 -43 34 -44 35 -74 20 -48 -25 -95 -20 -133 13 l-33 29 -42
-20z"/>
<path d="M454 722 c-36 -13 -43 -20 -48 -51 -6 -33 -3 -39 40 -77 l46 -40 40
19 c34 17 45 18 78 8 22 -6 48 -22 57 -35 l18 -23 41 19 40 20 0 74 -1 73 -39
18 c-34 15 -40 15 -50 2 -41 -54 -100 -62 -148 -20 -33 28 -34 28 -74 13z"/>
<path d="M143 661 c-10 -16 -5 -30 34 -92 25 -41 47 -75 48 -77 1 -2 14 0 28
3 21 6 29 17 42 62 l16 54 -28 34 c-25 30 -34 34 -78 34 -39 1 -53 -3 -62 -18z"/>
<path d="M350 619 c-20 -7 -29 -21 -41 -67 l-16 -59 29 -32 c28 -31 31 -32 83
-26 51 7 55 9 56 34 0 14 4 35 9 46 6 16 -1 30 -38 68 -26 26 -49 47 -52 46
-3 0 -16 -5 -30 -10z"/>
</g>
</svg>
